<svg width="80" height="80" viewBox="0 0 80 80" fill="none" xmlns="http://www.w3.org/2000/svg">
<circle cx="40" cy="40" r="40" fill="#597AE8"/>
<path d="M51.2796 36.6963C52.5 35.4759 52.5 33.5117 52.5 29.5833C52.5 25.655 52.5 23.6908 51.2796 22.4704M51.2796 36.6963C50.0592 37.9167 48.095 37.9167 44.1667 37.9167H35.8333C31.905 37.9167 29.9408 37.9167 28.7204 36.6963M51.2796 22.4704C50.0592 21.25 48.095 21.25 44.1667 21.25H35.8333C31.905 21.25 29.9408 21.25 28.7204 22.4704M28.7204 22.4704C27.5 23.6908 27.5 25.655 27.5 29.5833C27.5 33.5117 27.5 35.4759 28.7204 36.6963" stroke="white" stroke-width="1.56875"/>
<path d="M42.0834 29.5833C42.0834 30.7339 41.1506 31.6667 40 31.6667C38.8494 31.6667 37.9167 30.7339 37.9167 29.5833C37.9167 28.4328 38.8494 27.5 40 27.5C41.1506 27.5 42.0834 28.4328 42.0834 29.5833Z" stroke="white" stroke-width="1.56875"/>
<path d="M52.5 27.5C49.0481 27.5 46.25 24.7018 46.25 21.25" stroke="white" stroke-width="1.56875" stroke-linecap="round"/>
<path d="M52.5 31.6666C49.0481 31.6666 46.25 34.4649 46.25 37.9166" stroke="white" stroke-width="1.56875" stroke-linecap="round"/>
<path d="M27.5 27.5C30.9518 27.5 33.75 24.7018 33.75 21.25" stroke="white" stroke-width="1.56875" stroke-linecap="round"/>
<path d="M27.5 31.6666C30.9518 31.6666 33.75 34.4649 33.75 37.9166" stroke="white" stroke-width="1.56875" stroke-linecap="round"/>
<path d="M23.3333 59.5592H28.0415C30.1475 59.5592 32.2761 59.7786 34.3257 60.2009C37.9512 60.9478 41.7683 61.0382 45.431 60.4455M43.4925 53.5775C43.7421 53.5486 43.9812 53.5155 44.2096 53.479C46.1083 53.1761 47.7021 52.1615 49.1612 51.0592L52.9262 48.2153C54.2535 47.2125 56.2235 47.2123 57.551 48.2146C58.7462 49.1171 59.1116 50.603 58.356 51.814C57.475 53.2265 56.2335 55.0334 55.0414 56.1373M43.4925 53.5775C43.4173 53.5863 43.3412 53.5946 43.2641 53.6025M43.4925 53.5775C43.7962 53.5125 44.0977 53.325 44.3808 53.0782C45.7208 51.9086 45.8054 49.9375 44.6427 48.6315C44.3731 48.3286 44.0573 48.0759 43.7064 47.8665C37.8785 44.3905 28.8113 47.038 23.3333 50.9228M43.4925 53.5775C43.4164 53.5938 43.3402 53.6025 43.2641 53.6025M43.2641 53.6025C42.1737 53.7144 40.8983 53.7434 39.4829 53.6096" stroke="white" stroke-width="1.56875" stroke-linecap="round"/>
</svg>
