<svg width="14" height="14" viewBox="0 0 14 14" fill="none" xmlns="http://www.w3.org/2000/svg">
<path d="M4.7337 10.315L11.0817 3.96723L10.0324 2.91797L3.68457 9.26581C3.91388 9.36646 4.12478 9.51007 4.30719 9.69248C4.48954 9.87481 4.6331 10.0857 4.7337 10.315Z" fill="white" fill-opacity="0.5"/>
<path d="M5.31372 10.8947C5.54311 10.9953 5.75404 11.1389 5.9365 11.3214C6.11883 11.5039 6.26236 11.7148 6.36296 11.944L12.711 5.59616L11.6617 4.54688L5.31372 10.8947Z" fill="white" fill-opacity="0.5"/>
<path d="M13.6223 2.8627L11.1371 0.377486C10.6248 -0.134771 9.80855 -0.116806 9.3144 0.377486L8.98315 0.708728L13.2908 5.0167C13.2908 5.0167 13.6225 4.68524 13.6225 4.68519C14.1262 4.18086 14.1254 3.36591 13.6223 2.8627Z" fill="white" fill-opacity="0.5"/>
<path d="M4.50025 11.5509C4.39145 11.5509 4.28713 11.5077 4.21022 11.4308C4.1333 11.3539 4.08979 11.2493 4.08979 11.1405C4.08977 10.8149 3.96292 10.5088 3.73285 10.2787C3.50278 10.0487 3.19658 9.92193 2.87097 9.92191C2.76217 9.92191 2.65758 9.8784 2.58066 9.80149C2.50374 9.72457 2.46051 9.62025 2.46054 9.51145C2.46054 9.18587 2.33369 8.8797 2.10357 8.64955C1.91366 8.45984 1.67233 8.34035 1.41114 8.3042C1.21776 8.53676 1.08148 8.81181 1.01364 9.1089L0.443115 11.6044C1.35046 11.9369 2.07477 12.661 2.40725 13.5683L4.90278 12.9978C5.1999 12.93 5.47495 12.7937 5.70751 12.6003C5.67136 12.3391 5.55189 12.0978 5.36215 11.9079C5.13197 11.6778 4.82583 11.5509 4.50025 11.5509Z" fill="white" fill-opacity="0.5"/>
<path d="M0.258493 12.4126L0.0103209 13.4991C-0.0211244 13.6366 0.0203561 13.7807 0.120134 13.8805C0.269376 14.0297 0.449872 14.0021 0.50158 13.9903L1.5935 13.7405C1.34123 13.1422 0.858443 12.6616 0.258493 12.4126Z" fill="white" fill-opacity="0.5"/>
<path d="M3.10474 8.68587L9.45252 2.33786L8.40323 1.28857L2.05542 7.63663C2.28464 7.73723 2.49549 7.88076 2.67801 8.06309C2.86045 8.24555 3.00406 8.45648 3.10474 8.68587Z" fill="white" fill-opacity="0.5"/>
</svg>
