<svg width="80" height="80" viewBox="0 0 80 80" fill="none" xmlns="http://www.w3.org/2000/svg">
<circle cx="40" cy="40" r="40" fill="#E85959"/>
<path d="M56.6907 23.5053C54.5587 21.3726 51.7127 20.1986 48.6767 20.1986C45.6413 20.1986 42.7953 21.3726 40.6627 23.5053L23.3067 40.8619C21.174 42.9939 20 45.8399 20 48.8753C20 51.9113 21.174 54.7573 23.3067 56.8893C25.4387 59.0219 28.2847 60.1959 31.3207 60.1959C34.3567 60.1959 37.202 59.0219 39.3347 56.8893L56.6913 39.5326C58.824 37.4006 59.998 34.5546 59.998 31.5186C59.998 28.4826 58.8233 25.6373 56.6907 23.5053ZM55.748 38.5899L47.734 46.6039L33.592 32.4619L41.606 24.4479C43.486 22.5673 45.9973 21.5319 48.6767 21.5319C51.3567 21.5319 53.8673 22.5673 55.748 24.4479C57.6287 26.3279 58.664 28.8393 58.664 31.5186C58.664 34.1979 57.6287 36.7099 55.748 38.5899Z" fill="white"/>
</svg>
