<svg width="27" height="31" viewBox="0 0 27 31" fill="none" xmlns="http://www.w3.org/2000/svg">
<path d="M24.7678 30H2.23222C1.90542 30 1.592 29.8771 1.36091 29.6583C1.12983 29.4396 1.00001 29.1429 1.00001 28.8335V11.9742C0.999297 11.8132 1.0344 11.6539 1.10303 11.5066C1.17166 11.3593 1.27229 11.2274 1.39835 11.1194L12.6635 1.3095C12.8903 1.11054 13.1881 1 13.4974 1C13.8066 1 14.1044 1.11054 14.3312 1.3095L25.6017 11.1194C25.7267 11.2282 25.8266 11.3603 25.8952 11.5074C25.9637 11.6545 25.9994 11.8134 26 11.9742V28.8335C26 29.1429 25.8702 29.4396 25.6391 29.6583C25.408 29.8771 25.0946 30 24.7678 30ZM10.6027 21.7488H16.4026C16.5226 21.7495 16.6412 21.7725 16.7518 21.8166C16.8624 21.8607 16.9627 21.9249 17.047 22.0057C17.1313 22.0865 17.198 22.1822 17.2433 22.2874C17.2886 22.3925 17.3115 22.5051 17.3108 22.6187V30H9.68919V22.6187C9.68849 22.5047 9.7116 22.3917 9.7572 22.2862C9.8028 22.1807 9.86998 22.0848 9.95488 22.0039C10.0398 21.9231 10.1407 21.8589 10.2519 21.8152C10.3631 21.7714 10.4823 21.7488 10.6027 21.7488Z" stroke="white" stroke-width="2" stroke-linecap="round" stroke-linejoin="round"/>
</svg>
