<svg width="32" height="29" viewBox="0 0 32 29" fill="none" xmlns="http://www.w3.org/2000/svg">
<path d="M15.0814 13.3654C14.8254 13.3654 14.5694 13.2772 14.3747 13.0996L11.6761 10.6539C11.2854 10.2999 11.2854 9.7259 11.6761 9.37185C12.0667 9.01781 12.7001 9.01781 13.0907 9.37185L15.7881 11.8175C16.1787 12.1716 16.1787 12.7455 15.7881 13.0996C15.5921 13.276 15.3374 13.3654 15.0814 13.3654Z" fill="white"/>
<path d="M14.1506 15.4062H10.3333C9.78125 15.4062 9.33325 15.0002 9.33325 14.5C9.33325 13.9997 9.78125 13.5938 10.3333 13.5938H14.1506C14.7026 13.5938 15.1506 13.9997 15.1506 14.5C15.1506 15.0002 14.7026 15.4062 14.1506 15.4062Z" fill="white"/>
<path d="M17.3333 21.75C15.1946 21.75 13.1853 20.996 11.6759 19.6282C10.1653 18.2591 9.33325 16.4382 9.33325 14.5C9.33325 12.5618 10.1653 10.7409 11.6759 9.37183C13.1853 8.004 15.1946 7.25 17.3333 7.25C19.4719 7.25 21.4812 8.004 22.9906 9.37183C24.5012 10.7409 25.3333 12.5618 25.3333 14.5C25.3333 16.4382 24.5012 18.2591 22.9906 19.6282C21.4812 20.996 19.4719 21.75 17.3333 21.75ZM17.3333 9.0625C15.7293 9.0625 14.2213 9.628 13.0893 10.6539C11.9573 11.681 11.3333 13.0464 11.3333 14.5C11.3333 15.9536 11.9573 17.319 13.0893 18.3461C14.2213 19.372 15.7293 19.9375 17.3333 19.9375C18.9373 19.9375 20.4453 19.372 21.5773 18.3461C22.7106 17.319 23.3333 15.9536 23.3333 14.5C23.3333 13.0464 22.7093 11.681 21.5773 10.6539C20.4453 9.628 18.9373 9.0625 17.3333 9.0625ZM17.3333 18.2893C16.2293 18.2893 15.1493 17.8857 14.3733 17.1813C13.5839 16.4672 13.1506 15.515 13.1506 14.5C13.1506 13.485 13.5839 12.5328 14.3733 11.8175C15.9253 10.4098 18.7399 10.4098 20.2919 11.8175C21.0813 12.5316 21.5146 13.4838 21.5146 14.5C21.5146 15.5162 21.0813 16.4672 20.2919 17.1825C19.5173 17.8857 18.4373 18.2893 17.3333 18.2893ZM17.3333 12.5232C16.7546 12.5232 16.1933 12.7334 15.7879 13.0995C15.3773 13.4717 15.1506 13.9695 15.1506 14.5C15.1506 15.0305 15.3773 15.5283 15.7879 15.9005C16.5973 16.6327 18.0693 16.6327 18.8786 15.9005C19.2893 15.5283 19.5159 15.0305 19.5159 14.5C19.5159 13.9695 19.2893 13.4717 18.8786 13.0995C18.4733 12.7334 17.9119 12.5232 17.3333 12.5232Z" fill="white"/>
<path d="M17.3333 21.75C16.7813 21.75 16.3333 21.344 16.3333 20.8437V17.3831C16.3333 16.8828 16.7813 16.4768 17.3333 16.4768C17.8853 16.4768 18.3333 16.8828 18.3333 17.3831V20.8437C18.3333 21.344 17.8853 21.75 17.3333 21.75Z" fill="white"/>
<path d="M17.3333 12.5232C16.7813 12.5232 16.3333 12.1172 16.3333 11.6169V8.15625C16.3333 7.656 16.7813 7.25 17.3333 7.25C17.8853 7.25 18.3333 7.656 18.3333 8.15625V11.6169C18.3333 12.1172 17.8853 12.5232 17.3333 12.5232Z" fill="white"/>
<path d="M22.2839 19.8927C22.0279 19.8927 21.7719 19.8045 21.5772 19.6269L18.8799 17.1812C18.4892 16.8272 18.4892 16.2532 18.8799 15.8992C19.2706 15.5452 19.9039 15.5452 20.2946 15.8992L22.9919 18.3449C23.3826 18.6989 23.3826 19.2729 22.9919 19.6269C22.7959 19.8045 22.5399 19.8927 22.2839 19.8927Z" fill="white"/>
<path d="M24.3333 15.4062H20.516C19.964 15.4062 19.516 15.0002 19.516 14.5C19.516 13.9997 19.964 13.5938 20.516 13.5938H24.3333C24.8853 13.5938 25.3333 13.9997 25.3333 14.5C25.3333 15.0002 24.8853 15.4062 24.3333 15.4062Z" fill="white"/>
<path d="M19.5854 13.3654C19.3294 13.3654 19.0734 13.2772 18.8787 13.0996C18.488 12.7455 18.488 12.1716 18.8787 11.8175L21.576 9.37185C21.9667 9.01781 22.6 9.01781 22.9907 9.37185C23.3814 9.7259 23.3814 10.2999 22.9907 10.6539L20.2934 13.0996C20.0974 13.276 19.8427 13.3654 19.5854 13.3654Z" fill="white"/>
<path d="M12.3827 19.8927C12.1267 19.8927 11.8707 19.8045 11.6761 19.6269C11.2854 19.2729 11.2854 18.6989 11.6761 18.3449L14.3734 15.8992C14.7641 15.5452 15.3974 15.5452 15.7881 15.8992C16.1787 16.2532 16.1787 16.8272 15.7881 17.1812L13.0907 19.6269C12.8947 19.8045 12.6387 19.8927 12.3827 19.8927Z" fill="white"/>
<path d="M28.3334 29H6.00004C3.97737 29 2.33337 27.5101 2.33337 25.6771V22.6562C2.33337 22.156 2.78137 21.75 3.33337 21.75C3.88537 21.75 4.33337 22.156 4.33337 22.6562V25.6771C4.33337 26.5096 5.08137 27.1875 6.00004 27.1875H28.3334C29.252 27.1875 30 26.5096 30 25.6771V3.32292C30 2.49037 29.252 1.8125 28.3334 1.8125H6.00004C5.08137 1.8125 4.33337 2.49037 4.33337 3.32292V6.34375C4.33337 6.844 3.88537 7.25 3.33337 7.25C2.78137 7.25 2.33337 6.844 2.33337 6.34375V3.32292C2.33337 1.48987 3.97737 0 6.00004 0H28.3334C30.356 0 32 1.48987 32 3.32292V25.6771C32 27.5101 30.356 29 28.3334 29Z" fill="white"/>
<path d="M3.33325 19.3333C2.78125 19.3333 2.33325 18.9273 2.33325 18.427V10.5729C2.33325 10.0726 2.78125 9.66663 3.33325 9.66663C3.88525 9.66663 4.33325 10.0726 4.33325 10.5729V18.427C4.33325 18.9273 3.88525 19.3333 3.33325 19.3333Z" fill="white"/>
<path d="M5.66667 10.875H1C0.448 10.875 0 10.469 0 9.96871V6.94788C0 6.44763 0.448 6.04163 1 6.04163H5.66667C6.21867 6.04163 6.66667 6.44763 6.66667 6.94788V9.96871C6.66667 10.469 6.21867 10.875 5.66667 10.875ZM2 9.06246H4.66667V7.85413H2V9.06246Z" fill="white"/>
<path d="M5.66667 22.9583H1C0.448 22.9583 0 22.5523 0 22.0521V19.0312C0 18.531 0.448 18.125 1 18.125H5.66667C6.21867 18.125 6.66667 18.531 6.66667 19.0312V22.0521C6.66667 22.5523 6.21867 22.9583 5.66667 22.9583ZM2 21.1458H4.66667V19.9375H2V21.1458Z" fill="white"/>
</svg>
