<svg width="80" height="80" viewBox="0 0 80 80" fill="none" xmlns="http://www.w3.org/2000/svg">
<circle cx="40" cy="40" r="40" fill="#59E890"/>
<path d="M25.8333 39.1666H23.9583V31.6666C23.9583 29.5956 25.6372 27.9166 27.7083 27.9166H35.2083M25.8333 39.1666V50.4166C25.8333 52.4877 27.5122 54.1666 29.5833 54.1666H52.0833C54.1544 54.1666 55.8333 52.4877 55.8333 50.4166V39.1666M25.8333 39.1666H37.0833M35.2083 27.9166V26.0416C35.2083 23.9706 36.8872 22.2916 38.9583 22.2916H42.7083C44.7794 22.2916 46.4583 23.9706 46.4583 26.0416V27.9166M35.2083 27.9166H46.4583M55.8333 39.1666H57.7083V31.6666C57.7083 29.5956 56.0294 27.9166 53.9583 27.9166H46.4583M55.8333 39.1666H44.5833M37.0833 39.1666V35.4166H44.5833V39.1666M37.0833 39.1666V42.9166H44.5833V39.1666" stroke="white" stroke-width="1.56875" stroke-linecap="round" stroke-linejoin="round"/>
</svg>
