<svg width="80" height="80" viewBox="0 0 80 80" fill="none" xmlns="http://www.w3.org/2000/svg">
<circle cx="40" cy="40" r="40" fill="#597AE8"/>
<path d="M62.6195 35.7274C62.1346 35.1357 61.4521 34.7969 60.747 34.7969H59.6868V33.9264C59.6868 32.3627 58.351 31.0896 56.7097 31.0896H55.3119V29.4829C55.3119 28.7266 54.9947 27.9888 54.4427 27.4579C53.3446 26.4029 51.4466 26.4029 50.3485 27.4579C49.7958 27.9896 49.4786 28.7273 49.4786 29.4836V37.022H30.5206V29.4836C30.5206 28.7273 30.2041 27.9896 29.6514 27.4587C28.5533 26.4036 26.6553 26.4036 25.5572 27.4587C25.0045 27.9896 24.6873 28.7273 24.6873 29.4836V31.0903H23.1197C22.3825 31.0903 21.6854 31.361 21.156 31.8526C20.6201 32.353 20.3124 33.0515 20.3124 33.7677V34.7969H19.2624C18.5537 34.7969 17.8683 35.1372 17.3819 35.7311C16.9211 36.2946 16.6666 37.0353 16.6666 37.8161V42.1581C16.6666 42.9388 16.9211 43.6795 17.3827 44.243C17.869 44.8369 18.5544 45.1773 19.2624 45.1773H20.3124V46.2064C20.3124 46.9227 20.6201 47.6211 21.1575 48.1231C21.6854 48.6139 22.3825 48.8846 23.1197 48.8846H24.6873V50.4913C24.6873 51.2476 25.0045 51.9853 25.5565 52.5155C26.1055 53.0426 26.8325 53.3333 27.604 53.3333C28.3754 53.3333 29.1024 53.0426 29.6514 52.5155C30.2041 51.9846 30.5206 51.2468 30.5206 50.4913V42.9529H49.4786V50.4913C49.4786 51.2476 49.7958 51.9853 50.3478 52.5155C50.8968 53.0426 51.6238 53.3333 52.3952 53.3333C53.1667 53.3333 53.8937 53.0426 54.4427 52.5155C54.9947 51.9846 55.3119 51.2468 55.3119 50.4913V48.8846H56.7097C58.351 48.8846 59.6868 47.6122 59.6868 46.0477V45.1773H60.747C61.4521 45.1773 62.1346 44.8377 62.6202 44.2467C63.0796 43.6855 63.3333 42.9485 63.3333 42.1707V37.8042C63.3326 37.0264 63.0796 36.2887 62.6195 35.7274ZM19.2624 43.6944C18.9846 43.6944 18.7148 43.552 18.5034 43.294C18.2627 43.0011 18.1249 42.5866 18.1249 42.1581V37.8161C18.1249 37.3875 18.2627 36.9738 18.5034 36.6802C18.7148 36.4222 18.9846 36.2798 19.2624 36.2798H20.3124V43.6944H19.2624ZM23.1197 47.4016C22.7529 47.4016 22.3963 47.266 22.1433 47.0302C21.9027 46.8055 21.7707 46.5134 21.7707 46.2064V44.4358V35.5383V33.7677C21.7707 33.4608 21.9027 33.1679 22.1419 32.9447C22.3971 32.7082 22.7529 32.5725 23.1197 32.5725H24.6873V47.4016H23.1197ZM29.0623 50.4913C29.0623 50.8464 28.9157 51.1823 28.6503 51.4374C28.1034 51.9623 27.1052 51.9623 26.5583 51.4374C26.2922 51.1823 26.1456 50.8457 26.1456 50.4913V48.1431V31.8311V29.4829C26.1456 29.1277 26.2922 28.7918 26.5576 28.5368C26.8311 28.2743 27.2124 28.1238 27.604 28.1238C27.9955 28.1238 28.3769 28.2743 28.6503 28.5368C28.9157 28.7918 29.0623 29.1284 29.0623 29.4836V37.7634V42.2122V50.4913ZM30.5206 41.47V38.5042H49.4786V41.47H30.5206ZM53.8535 50.4913C53.8535 50.8464 53.707 51.1823 53.4416 51.4374C52.8947 51.9623 51.8965 51.9623 51.3496 51.4374C51.0835 51.1823 50.9369 50.8457 50.9369 50.4913V42.2114V37.7627V29.4836C50.9369 29.1284 51.0835 28.7926 51.3489 28.5375C51.6223 28.275 52.0037 28.1245 52.3952 28.1245C52.7868 28.1245 53.1681 28.275 53.4416 28.5375C53.707 28.7918 53.8535 29.1284 53.8535 29.4836V31.8318V48.1438V50.4913ZM58.2285 46.0477C58.2285 46.7944 57.5475 47.4016 56.7097 47.4016H55.3119V32.5725H56.7097C57.5467 32.5725 58.2285 33.1798 58.2285 33.9264V35.5383V44.4358V46.0477ZM61.8743 42.1699C61.8743 42.5955 61.7372 43.0055 61.4995 43.2969C61.2895 43.5535 61.0219 43.6944 60.747 43.6944H59.6868V36.2798H60.747C61.0219 36.2798 61.2895 36.4207 61.4995 36.6772C61.7379 36.9679 61.8743 37.3786 61.8743 37.8042V42.1699Z" fill="white"/>
</svg>
