<svg width="80" height="80" viewBox="0 0 80 80" fill="none" xmlns="http://www.w3.org/2000/svg">
<circle cx="40" cy="40" r="40" fill="#E88B59"/>
<path d="M53.7766 35.8252L56.7784 33.1564L56.7898 33.147C59.2033 30.911 60.3652 27.6328 59.8987 24.3757L59.7896 23.6023C59.6587 22.7232 58.9686 22.0327 58.0894 21.9015L57.3219 21.7931C54.0583 21.3256 50.7735 22.4924 48.5353 24.9134L45.8665 27.9155L44.4242 27.0856C40.6272 24.9078 36.3252 23.7652 31.948 23.7714L30.7068 23.776C29.5169 23.7815 28.419 24.4178 27.8226 25.4475L27.5888 25.8536C27.4047 26.1732 27.5141 26.5816 27.8333 26.766L40.5714 34.1205L30.6174 45.3983L29.8551 46.3783C27.788 45.2458 25.4691 44.651 23.1118 44.6487L22.105 44.6441C21.3923 44.6523 20.7355 45.0326 20.3741 45.647L20.0898 46.1338C20.001 46.2872 19.9768 46.47 20.0228 46.6414C20.0685 46.8128 20.1808 46.959 20.3346 47.0475L26.8197 50.7917C26.6359 51.1472 26.4616 51.5037 26.3029 51.8699C25.9542 52.6959 26.0398 53.6413 26.5311 54.3912C27.0224 55.1411 27.8549 55.5971 28.7513 55.6076C29.1193 55.6069 29.4833 55.5312 29.8211 55.3856C29.8381 55.3787 29.8551 55.3709 29.8711 55.3621C30.2054 55.2184 30.5498 55.0493 30.8994 54.8688L34.6436 61.3539C34.7317 61.5083 34.8776 61.6216 35.0494 61.6679C35.2211 61.7146 35.4042 61.6908 35.5583 61.602L36.0496 61.318H36.0535C36.6676 60.9533 37.0463 60.2935 37.0512 59.5796L37.0466 58.5852C37.0437 56.2259 36.4472 53.9051 35.3122 51.8366L36.2781 51.0851L47.5648 41.1194L54.9231 53.8591C55.1079 54.1783 55.5163 54.288 55.8359 54.1039L56.2417 53.8705C57.2716 53.2737 57.9079 52.1755 57.9131 50.9849L57.9171 49.7454C57.935 45.3669 56.7918 41.0616 54.6042 37.2688L53.7766 35.8252ZM30.7117 25.1132L31.9526 25.1085C36.0943 25.0991 40.1653 26.1807 43.7563 28.2442L44.976 28.9458L41.4633 33.0964L29.0882 25.9495C29.4646 25.4275 30.0679 25.1168 30.7117 25.1132ZM22.1083 45.9813L23.1111 45.9859C25.173 45.9862 27.2039 46.487 29.0295 47.4455L28.6097 47.9864C28.3668 48.2933 28.1363 48.6174 27.9117 48.9504C27.8448 49.0467 27.7847 49.145 27.721 49.2433C27.6388 49.3709 27.5526 49.494 27.4729 49.6249L21.5895 46.2304C21.7168 46.0743 21.9068 45.9829 22.1083 45.9813ZM35.7059 58.5862L35.7108 59.574C35.7108 59.7787 35.6187 59.9723 35.4607 60.1016L32.0668 54.2182C32.1964 54.1391 32.3182 54.0549 32.4446 53.9733C32.5441 53.9067 32.6453 53.8457 32.7429 53.7794C33.0671 53.5616 33.3821 53.3377 33.6789 53.1043L33.6988 53.0896L34.2473 52.6629C35.2061 54.4901 35.7065 56.5226 35.7059 58.5862ZM35.4245 50.0555L34.0484 51.1253C34.0452 51.1253 34.0406 51.1253 34.0373 51.1312L32.8712 52.0407C32.2268 52.5457 31.5432 52.9992 30.8266 53.3958C30.3317 53.6762 29.8221 53.9302 29.3004 54.1568C29.2854 54.1627 29.2714 54.1692 29.2567 54.1767C28.7536 54.3709 28.183 54.2453 27.8079 53.8581C27.4324 53.4706 27.325 52.8963 27.5353 52.3995C27.7631 51.8739 28.0184 51.3607 28.3008 50.8618C28.6981 50.142 29.1522 49.4551 29.6592 48.8081L30.5619 47.6498C30.5619 47.6498 30.5619 47.6426 30.5671 47.6394L31.647 46.2487L49.5251 25.8121C51.1685 24.0391 53.4756 23.03 55.8933 23.0274C56.3073 23.0274 56.7206 23.0571 57.1303 23.1169L57.8978 23.2253C58.191 23.2687 58.4221 23.4982 58.4665 23.7917L58.5755 24.5644C58.9784 27.3847 57.9722 30.2232 55.8832 32.1601L35.4245 50.0555ZM56.5786 50.981C56.575 51.6241 56.2639 52.2271 55.7415 52.6028L48.5957 40.2246L52.7476 36.7151L53.4501 37.9361C55.5199 41.5258 56.6008 45.6003 56.5825 49.7441L56.5786 50.981Z" fill="white"/>
<path d="M52.2934 26.6514C53.0818 26.1849 54.0863 26.3119 54.7337 26.9599C55.381 27.6083 55.5074 28.6124 55.0399 29.4005C54.8515 29.7182 54.9563 30.1282 55.2736 30.3169C55.5913 30.5052 56.0016 30.4008 56.19 30.0831C56.9689 28.7701 56.7593 27.0961 55.6804 26.0155C54.6014 24.9352 52.9277 24.723 51.6134 25.5C51.4051 25.6201 51.2775 25.8431 51.2791 26.0834C51.2804 26.324 51.411 26.545 51.6209 26.6625C51.8308 26.78 52.0877 26.7758 52.2934 26.6514Z" fill="white"/>
</svg>
